# xmcd
# 
# Track frame offsets:
#     150
#     14962
#     29362
#     43798
#     61720
# 
# Disc length: 997
# 
# Revision: 2
# Processed by: cddbd v1.5.2PL0 Copyright (c) Steve Scherf et al.
# Submitted via: BonkEnc v1.0.8
# 
DISCID=3e03e305
DTITLE=The Groodies - Hands Off
DYEAR=0
DGENRE=Rock
TTITLE0=Dreamlover (Don't Give Me Nightmares)
TTITLE1=Hands Off My Stereo
TTITLE2=Hope You Die
TTITLE3=Hell City
TTITLE4=Bloody Romance
EXTD=
EXTT0=
EXTT1=
EXTT2=
EXTT3=
EXTT4=
PLAYORDER=
